<mxfile host="app.diagrams.net" modified="2024-02-29T07:35:13.088Z" agent="Mozilla/5.0 (Windows NT 10.0; Win64; x64) AppleWebKit/537.36 (KHTML, like Gecko) Chrome/121.0.0.0 Safari/537.36" etag="hIHfX1T_w0fxi8GBGotz" version="23.1.8" type="github">
  <diagram name="第 1 页" id="YhEYsEBqJvXXopttO03T">
    <mxGraphModel dx="1050" dy="565" grid="1" gridSize="10" guides="1" tooltips="1" connect="1" arrows="1" fold="1" page="1" pageScale="1" pageWidth="827" pageHeight="1169" math="0" shadow="0">
      <root>
        <mxCell id="0" />
        <mxCell id="1" parent="0" />
        <mxCell id="CQzjHBs2uaHPYQP8V7Ct-5" value="" style="edgeStyle=entityRelationEdgeStyle;rounded=0;orthogonalLoop=1;jettySize=auto;html=1;startArrow=none;endArrow=none;segment=10;curved=1;sourcePerimeterSpacing=0;targetPerimeterSpacing=0;exitX=1;exitY=0.5;exitDx=0;exitDy=0;" edge="1" parent="1" source="CQzjHBs2uaHPYQP8V7Ct-1" target="CQzjHBs2uaHPYQP8V7Ct-4">
          <mxGeometry relative="1" as="geometry">
            <mxPoint x="305" y="155" as="sourcePoint" />
          </mxGeometry>
        </mxCell>
        <mxCell id="CQzjHBs2uaHPYQP8V7Ct-15" value="" style="edgeStyle=entityRelationEdgeStyle;rounded=0;orthogonalLoop=1;jettySize=auto;html=1;startArrow=none;endArrow=none;segment=10;curved=1;sourcePerimeterSpacing=0;targetPerimeterSpacing=0;exitX=1;exitY=0.5;exitDx=0;exitDy=0;" edge="1" parent="1" source="CQzjHBs2uaHPYQP8V7Ct-1" target="CQzjHBs2uaHPYQP8V7Ct-6">
          <mxGeometry relative="1" as="geometry">
            <mxPoint x="305" y="155" as="sourcePoint" />
          </mxGeometry>
        </mxCell>
        <mxCell id="CQzjHBs2uaHPYQP8V7Ct-1" value="今天持有&lt;br&gt;包含维持和买入" style="whiteSpace=wrap;html=1;rounded=1;arcSize=50;align=center;verticalAlign=middle;strokeWidth=1;autosize=1;spacing=4;treeFolding=1;treeMoving=1;newEdgeStyle={&quot;edgeStyle&quot;:&quot;entityRelationEdgeStyle&quot;,&quot;startArrow&quot;:&quot;none&quot;,&quot;endArrow&quot;:&quot;none&quot;,&quot;segment&quot;:10,&quot;curved&quot;:1,&quot;sourcePerimeterSpacing&quot;:0,&quot;targetPerimeterSpacing&quot;:0};" vertex="1" parent="1">
          <mxGeometry x="142" y="115" width="130" height="50" as="geometry" />
        </mxCell>
        <mxCell id="CQzjHBs2uaHPYQP8V7Ct-2" value="" style="edgeStyle=entityRelationEdgeStyle;startArrow=none;endArrow=none;segment=10;curved=1;sourcePerimeterSpacing=0;targetPerimeterSpacing=0;rounded=0;exitX=1;exitY=0.5;exitDx=0;exitDy=0;" edge="1" target="CQzjHBs2uaHPYQP8V7Ct-1" parent="1" source="CQzjHBs2uaHPYQP8V7Ct-3">
          <mxGeometry relative="1" as="geometry">
            <mxPoint x="164" y="192" as="sourcePoint" />
          </mxGeometry>
        </mxCell>
        <mxCell id="CQzjHBs2uaHPYQP8V7Ct-3" value="309&lt;br&gt;最佳买卖股票时机&lt;br&gt;含冷冻期" style="ellipse;whiteSpace=wrap;html=1;align=center;newEdgeStyle={&quot;edgeStyle&quot;:&quot;entityRelationEdgeStyle&quot;,&quot;startArrow&quot;:&quot;none&quot;,&quot;endArrow&quot;:&quot;none&quot;,&quot;segment&quot;:10,&quot;curved&quot;:1,&quot;sourcePerimeterSpacing&quot;:0,&quot;targetPerimeterSpacing&quot;:0};treeFolding=1;treeMoving=1;" vertex="1" parent="1">
          <mxGeometry x="10" y="115" width="100" height="50" as="geometry" />
        </mxCell>
        <mxCell id="CQzjHBs2uaHPYQP8V7Ct-19" value="" style="edgeStyle=entityRelationEdgeStyle;rounded=0;orthogonalLoop=1;jettySize=auto;html=1;startArrow=none;endArrow=none;segment=10;curved=1;sourcePerimeterSpacing=0;targetPerimeterSpacing=0;" edge="1" parent="1" source="CQzjHBs2uaHPYQP8V7Ct-4" target="CQzjHBs2uaHPYQP8V7Ct-18">
          <mxGeometry relative="1" as="geometry" />
        </mxCell>
        <mxCell id="CQzjHBs2uaHPYQP8V7Ct-4" value="可以维持持有" style="whiteSpace=wrap;html=1;rounded=1;arcSize=50;align=center;verticalAlign=middle;strokeWidth=1;autosize=1;spacing=4;treeFolding=1;treeMoving=1;newEdgeStyle={&quot;edgeStyle&quot;:&quot;entityRelationEdgeStyle&quot;,&quot;startArrow&quot;:&quot;none&quot;,&quot;endArrow&quot;:&quot;none&quot;,&quot;segment&quot;:10,&quot;curved&quot;:1,&quot;sourcePerimeterSpacing&quot;:0,&quot;targetPerimeterSpacing&quot;:0};" vertex="1" parent="1">
          <mxGeometry x="311" y="65" width="106" height="20" as="geometry" />
        </mxCell>
        <mxCell id="CQzjHBs2uaHPYQP8V7Ct-9" value="" style="edgeStyle=entityRelationEdgeStyle;rounded=0;orthogonalLoop=1;jettySize=auto;html=1;startArrow=none;endArrow=none;segment=10;curved=1;sourcePerimeterSpacing=0;targetPerimeterSpacing=0;" edge="1" parent="1" source="CQzjHBs2uaHPYQP8V7Ct-6" target="CQzjHBs2uaHPYQP8V7Ct-8">
          <mxGeometry relative="1" as="geometry" />
        </mxCell>
        <mxCell id="CQzjHBs2uaHPYQP8V7Ct-10" value="前提是过了&lt;br&gt;冷冻期" style="edgeLabel;html=1;align=center;verticalAlign=middle;resizable=0;points=[];" vertex="1" connectable="0" parent="CQzjHBs2uaHPYQP8V7Ct-9">
          <mxGeometry x="-0.1486" y="2" relative="1" as="geometry">
            <mxPoint y="1" as="offset" />
          </mxGeometry>
        </mxCell>
        <mxCell id="CQzjHBs2uaHPYQP8V7Ct-11" value="" style="edgeStyle=entityRelationEdgeStyle;rounded=0;orthogonalLoop=1;jettySize=auto;html=1;startArrow=none;endArrow=none;segment=10;curved=1;sourcePerimeterSpacing=0;targetPerimeterSpacing=0;" edge="1" parent="1" source="CQzjHBs2uaHPYQP8V7Ct-6" target="CQzjHBs2uaHPYQP8V7Ct-8">
          <mxGeometry relative="1" as="geometry" />
        </mxCell>
        <mxCell id="CQzjHBs2uaHPYQP8V7Ct-13" value="" style="edgeStyle=entityRelationEdgeStyle;rounded=0;orthogonalLoop=1;jettySize=auto;html=1;startArrow=none;endArrow=none;segment=10;curved=1;sourcePerimeterSpacing=0;targetPerimeterSpacing=0;" edge="1" parent="1" source="CQzjHBs2uaHPYQP8V7Ct-6" target="CQzjHBs2uaHPYQP8V7Ct-12">
          <mxGeometry relative="1" as="geometry" />
        </mxCell>
        <mxCell id="CQzjHBs2uaHPYQP8V7Ct-6" value="也可以是今天买入" style="whiteSpace=wrap;html=1;rounded=1;arcSize=50;align=center;verticalAlign=middle;strokeWidth=1;autosize=1;spacing=4;treeFolding=1;treeMoving=1;newEdgeStyle={&quot;edgeStyle&quot;:&quot;entityRelationEdgeStyle&quot;,&quot;startArrow&quot;:&quot;none&quot;,&quot;endArrow&quot;:&quot;none&quot;,&quot;segment&quot;:10,&quot;curved&quot;:1,&quot;sourcePerimeterSpacing&quot;:0,&quot;targetPerimeterSpacing&quot;:0};" vertex="1" parent="1">
          <mxGeometry x="311" y="150" width="106" height="25" as="geometry" />
        </mxCell>
        <mxCell id="CQzjHBs2uaHPYQP8V7Ct-8" value="上一个状态是冷冻期：dp[i-1][冷冻期]" style="whiteSpace=wrap;html=1;rounded=1;arcSize=50;align=center;verticalAlign=middle;strokeWidth=1;autosize=1;spacing=4;treeFolding=1;treeMoving=1;newEdgeStyle={&quot;edgeStyle&quot;:&quot;entityRelationEdgeStyle&quot;,&quot;startArrow&quot;:&quot;none&quot;,&quot;endArrow&quot;:&quot;none&quot;,&quot;segment&quot;:10,&quot;curved&quot;:1,&quot;sourcePerimeterSpacing&quot;:0,&quot;targetPerimeterSpacing&quot;:0};" vertex="1" parent="1">
          <mxGeometry x="457" y="235" width="240" height="30" as="geometry" />
        </mxCell>
        <mxCell id="CQzjHBs2uaHPYQP8V7Ct-12" value="很早前就卖了，上一天是维持不持股状态：dp[i-1][不持股]" style="whiteSpace=wrap;html=1;rounded=1;arcSize=50;align=center;verticalAlign=middle;strokeWidth=1;autosize=1;spacing=4;treeFolding=1;treeMoving=1;newEdgeStyle={&quot;edgeStyle&quot;:&quot;entityRelationEdgeStyle&quot;,&quot;startArrow&quot;:&quot;none&quot;,&quot;endArrow&quot;:&quot;none&quot;,&quot;segment&quot;:10,&quot;curved&quot;:1,&quot;sourcePerimeterSpacing&quot;:0,&quot;targetPerimeterSpacing&quot;:0};" vertex="1" parent="1">
          <mxGeometry x="477" y="120" width="350" height="30" as="geometry" />
        </mxCell>
        <mxCell id="CQzjHBs2uaHPYQP8V7Ct-18" value="上一个状态就是持有状态" style="whiteSpace=wrap;html=1;rounded=1;arcSize=50;align=center;verticalAlign=middle;strokeWidth=1;autosize=1;spacing=4;treeFolding=1;treeMoving=1;newEdgeStyle={&quot;edgeStyle&quot;:&quot;entityRelationEdgeStyle&quot;,&quot;startArrow&quot;:&quot;none&quot;,&quot;endArrow&quot;:&quot;none&quot;,&quot;segment&quot;:10,&quot;curved&quot;:1,&quot;sourcePerimeterSpacing&quot;:0,&quot;targetPerimeterSpacing&quot;:0};" vertex="1" parent="1">
          <mxGeometry x="460" y="60" width="180" height="30" as="geometry" />
        </mxCell>
      </root>
    </mxGraphModel>
  </diagram>
</mxfile>
